<?xml version="1.0" standalone="no"?>
<!DOCTYPE svg PUBLIC "-//W3C//DTD SVG 20010904//EN"
 "http://www.w3.org/TR/2001/REC-SVG-20010904/DTD/svg10.dtd">
<svg version="1.0" xmlns="http://www.w3.org/2000/svg"
 width="857.000000pt" height="617.000000pt" viewBox="0 0 857.000000 617.000000"
 preserveAspectRatio="xMidYMid meet">
<metadata>
Created by potrace 1.16, written by Peter Selinger 2001-2019
</metadata>
<g transform="translate(0.000000,617.000000) scale(0.100000,-0.100000)"
fill="#000000" stroke="none">
<path d="M7588 4813 c-2 -4 -1 -136 3 -293 6 -325 5 -1518 -1 -1539 -4 -11 99
-54 420 -173 234 -87 437 -161 451 -164 18 -4 28 -1 32 10 4 11 -8 20 -51 36
-31 12 -219 82 -417 155 -198 73 -367 136 -375 139 -13 6 -15 113 -17 874 -1
477 -4 887 -6 912 -3 30 -10 46 -20 48 -8 2 -17 -1 -19 -5z"/>
<path d="M94 3366 c-4 -9 -5 -19 -2 -21 2 -3 193 -83 424 -179 l419 -174 -1
-34 c0 -18 -5 -127 -12 -243 -18 -331 -29 -635 -37 -1025 -3 -151 -8 -333 -11
-403 -5 -128 -5 -129 16 -125 26 3 24 -14 35 508 11 553 38 1177 55 1285 5 28
5 53 2 57 -5 5 -735 312 -869 365 -7 3 -16 -2 -19 -11z"/>
</g>
</svg>
